<svg width="51" height="51" viewBox="0 0 51 51" fill="none" xmlns="http://www.w3.org/2000/svg">
<path d="M5.83333 44.3333V44.8333H6.33333H44.3333H44.8333V44.3333V41.8C44.8333 41.1316 44.6649 40.5129 44.3246 39.9559C43.9904 39.4092 43.5452 38.9781 42.9928 38.6713L42.9833 38.666L42.9736 38.6611C40.0925 37.2206 37.1812 36.1384 34.24 35.4165C31.2987 34.6945 28.3295 34.3333 25.3333 34.3333C22.3372 34.3333 19.368 34.6945 16.4266 35.4165C13.4854 36.1384 10.5741 37.2206 7.69306 38.6611L7.68334 38.666L7.67385 38.6713C7.12147 38.9781 6.67626 39.4092 6.34211 39.9559C6.00175 40.5129 5.83333 41.1316 5.83333 41.8V44.3333ZM25.3333 24.8333C21.9837 24.8333 19.1286 23.6465 16.7411 21.2589C14.3535 18.8714 13.1667 16.0163 13.1667 12.6667C13.1667 9.317 14.3535 6.46192 16.7411 4.07439C19.1286 1.68685 21.9837 0.5 25.3333 0.5C28.683 0.5 31.5381 1.68685 33.9256 4.07439C36.3131 6.46192 37.5 9.317 37.5 12.6667C37.5 16.0163 36.3131 18.8714 33.9256 21.2589C31.5381 23.6465 28.683 24.8333 25.3333 24.8333ZM0.5 50.1667V41.8C0.5 40.0963 0.937062 38.5378 1.8115 37.1137C2.68809 35.6861 3.84709 34.6028 5.29334 33.854C8.53261 32.2346 11.8212 31.0215 15.1594 30.213C18.4985 29.4043 21.8896 29 25.3333 29C28.7771 29 32.1682 29.4043 35.5073 30.213C38.8455 31.0215 42.1341 32.2347 45.3734 33.854C46.8196 34.6028 47.9786 35.6861 48.8552 37.1137C49.7296 38.5378 50.1667 40.0963 50.1667 41.8V50.1667H0.5ZM25.3333 19.5C27.2087 19.5 28.8265 18.8264 30.1598 17.4931C31.4931 16.1598 32.1667 14.542 32.1667 12.6667C32.1667 10.7913 31.4931 9.1735 30.1598 7.8402C28.8265 6.5069 27.2087 5.83333 25.3333 5.83333C23.458 5.83333 21.8402 6.5069 20.5069 7.8402C19.1736 9.1735 18.5 10.7913 18.5 12.6667C18.5 14.542 19.1736 16.1598 20.5069 17.4931C21.8402 18.8264 23.458 19.5 25.3333 19.5Z" fill="#6C9DD3" stroke="black"/>
</svg>
