<svg width="60" height="60" viewBox="0 0 60 60" fill="none" xmlns="http://www.w3.org/2000/svg">
<mask id="mask0_38_58" style="mask-type:alpha" maskUnits="userSpaceOnUse" x="0" y="0" width="60" height="60">
<rect x="0.5" y="0.5" width="59" height="59" fill="#D9D9D9" stroke="black"/>
</mask>
<g mask="url(#mask0_38_58)">
<path d="M16.875 23.0002H17.1414L17.29 22.779L28.29 6.40399L28.2946 6.39716L28.299 6.39018C28.4584 6.13505 28.6848 5.92084 28.9928 5.74976C29.2958 5.58142 29.6084 5.50018 29.9375 5.50018C30.2666 5.50018 30.5791 5.58142 30.8821 5.74976C31.1901 5.92084 31.4165 6.13505 31.576 6.39018L31.5803 6.39716L31.5849 6.40399L42.5849 22.779L42.7335 23.0002H43H55C55.6752 23.0002 56.1791 23.2583 56.5627 23.792C56.9546 24.3372 57.0614 24.9119 56.8921 25.5578C56.8919 25.5587 56.8917 25.5595 56.8914 25.5604L50.52 48.6724C50.2156 49.6572 49.6701 50.4539 48.8786 51.0758C48.0927 51.6932 47.2018 52.0002 46.1875 52.0002H13.8125C12.7982 52.0002 11.9072 51.6932 11.1214 51.0758C10.3299 50.4539 9.78438 49.6573 9.47998 48.6725L3.10851 25.5604C3.10827 25.5595 3.10803 25.5586 3.1078 25.5577C2.93856 24.9119 3.04537 24.3372 3.43723 23.792C3.82079 23.2583 4.32472 23.0002 4.99997 23.0002H16.875ZM13.2679 47.6328L13.3689 48.0002H13.75H46.25H46.631L46.7321 47.6328L52.2321 27.6328L52.406 27.0002H51.75H8.24997H7.59391L7.76787 27.6328L13.2679 47.6328ZM22.5214 22.2228L22.0032 23.0002H22.9375H37H37.9389L37.4149 22.2211L30.3524 11.7211L29.9356 11.1016L29.5214 11.7228L22.5214 22.2228ZM33.1777 40.6779C32.2915 41.564 31.2413 42.0002 30 42.0002C28.7586 42.0002 27.7084 41.564 26.8223 40.6779C25.9361 39.7917 25.5 38.7415 25.5 37.5002C25.5 36.2588 25.9361 35.2086 26.8223 34.3225C27.7084 33.4363 28.7586 33.0002 30 33.0002C31.2413 33.0002 32.2915 33.4363 33.1777 34.3225C34.0638 35.2086 34.5 36.2588 34.5 37.5002C34.5 38.7415 34.0638 39.7917 33.1777 40.6779Z" fill="#6C9DD3" stroke="black"/>
</g>
</svg>
